<?xml version="1.0" encoding="utf-8"?>

<!DOCTYPE svg PUBLIC "-//W3C//DTD SVG 1.1//EN" "http://www.w3.org/Graphics/SVG/1.1/DTD/svg11.dtd">
<!-- Uploaded to: SVG Repo, www.svgrepo.com, Generator: SVG Repo Mixer Tools -->
<svg height="800px" width="800px" version="1.1" id="_x32_" xmlns="http://www.w3.org/2000/svg" xmlns:xlink="http://www.w3.org/1999/xlink" 
	 viewBox="0 0 512 512"  xml:space="preserve">
<style type="text/css">
	.st0{fill:#000000;}
</style>
<g>
	<polygon class="st0" points="277.919,132.921 154.839,256 277.919,379.072 318.552,338.438 236.122,256 318.552,173.562 	"/>
	<path class="st0" d="M256.008,0C114.605,0.016,0.016,114.606,0,256c0.015,141.394,114.605,255.984,256.008,256
		C397.394,511.984,511.983,397.394,512,256C511.983,114.606,397.394,0.016,256.008,0z M408.585,408.585
		c-39.11,39.079-92.93,63.189-152.577,63.205c-59.655-0.016-113.483-24.126-152.594-63.205C64.328,369.475,40.217,315.647,40.21,256
		c0.007-59.654,24.118-113.474,63.204-152.585c39.111-39.086,92.939-63.197,152.594-63.205
		c59.646,0.008,113.466,24.119,152.577,63.205c39.079,39.11,63.197,92.93,63.205,152.585
		C471.782,315.647,447.664,369.475,408.585,408.585z"/>
</g>
</svg>