<svg width="20" height="24" viewBox="0 0 20 24" fill="none" xmlns="http://www.w3.org/2000/svg">
<path d="M10 11.8142C10.6875 11.8142 11.276 11.5829 11.7656 11.1202C12.2552 10.6574 12.5 10.1012 12.5 9.4514C12.5 8.80161 12.2552 8.24536 11.7656 7.78264C11.276 7.31991 10.6875 7.08855 10 7.08855C9.3125 7.08855 8.72396 7.31991 8.23438 7.78264C7.74479 8.24536 7.5 8.80161 7.5 9.4514C7.5 10.1012 7.74479 10.6574 8.23438 11.1202C8.72396 11.5829 9.3125 11.8142 10 11.8142ZM10 20.4977C12.5417 18.2924 14.4271 16.2889 15.6563 14.4872C16.8854 12.6855 17.5 11.0857 17.5 9.68768C17.5 7.54143 16.776 5.78406 15.3281 4.41558C13.8802 3.04709 12.1042 2.36285 10 2.36285C7.89583 2.36285 6.11979 3.04709 4.67188 4.41558C3.22396 5.78406 2.5 7.54143 2.5 9.68768C2.5 11.0857 3.11458 12.6855 4.34375 14.4872C5.57292 16.2889 7.45833 18.2924 10 20.4977ZM10 23.6285C6.64583 20.9309 4.14062 18.4253 2.48438 16.1117C0.828125 13.7981 0 11.6567 0 9.68768C0 6.73412 1.00521 4.38112 3.01563 2.62867C5.02604 0.876224 7.35417 0 10 0C12.6458 0 14.974 0.876224 16.9844 2.62867C18.9948 4.38112 20 6.73412 20 9.68768C20 11.6567 19.1719 13.7981 17.5156 16.1117C15.8594 18.4253 13.3542 20.9309 10 23.6285Z" fill="white"/>
</svg>
